<svg width="41" height="39" viewBox="0 0 41 39" fill="none" xmlns="http://www.w3.org/2000/svg">
<path d="M38.8757 23.25C38.3342 23.25 37.8149 23.4475 37.432 23.7992C37.0491 24.1508 36.834 24.6277 36.834 25.125V32.625C36.834 33.1223 36.6189 33.5992 36.236 33.9508C35.8531 34.3025 35.3338 34.5 34.7923 34.5H6.20898C5.6675 34.5 5.1482 34.3025 4.76531 33.9508C4.38242 33.5992 4.16732 33.1223 4.16732 32.625V25.125C4.16732 24.6277 3.95221 24.1508 3.56933 23.7992C3.18644 23.4475 2.66713 23.25 2.12565 23.25C1.58417 23.25 1.06486 23.4475 0.681975 23.7992C0.299088 24.1508 0.0839844 24.6277 0.0839844 25.125V32.625C0.0839844 34.1168 0.729295 35.5476 1.87796 36.6025C3.02662 37.6574 4.58453 38.25 6.20898 38.25H34.7923C36.4168 38.25 37.9747 37.6574 39.1233 36.6025C40.272 35.5476 40.9173 34.1168 40.9173 32.625V25.125C40.9173 24.6277 40.7022 24.1508 40.3193 23.7992C39.9364 23.4475 39.4171 23.25 38.8757 23.25ZM19.0511 26.4562C19.2452 26.627 19.4742 26.7608 19.7248 26.85C19.9692 26.9492 20.2335 27.0004 20.5007 27.0004C20.7678 27.0004 21.0321 26.9492 21.2765 26.85C21.5271 26.7608 21.7561 26.627 21.9502 26.4562L30.1169 18.9562C30.5014 18.6032 30.7173 18.1243 30.7173 17.625C30.7173 17.1257 30.5014 16.6468 30.1169 16.2937C29.7324 15.9407 29.211 15.7423 28.6673 15.7423C28.1236 15.7423 27.6022 15.9407 27.2177 16.2937L22.5423 20.6063V2.625C22.5423 2.12772 22.3272 1.65081 21.9443 1.29917C21.5614 0.947544 21.0421 0.75 20.5007 0.75C19.9592 0.75 19.4399 0.947544 19.057 1.29917C18.6741 1.65081 18.459 2.12772 18.459 2.625V20.6063L13.7836 16.2937C13.5932 16.1189 13.3672 15.9803 13.1185 15.8856C12.8698 15.791 12.6032 15.7423 12.334 15.7423C12.0648 15.7423 11.7982 15.791 11.5495 15.8856C11.3008 15.9803 11.0748 16.1189 10.8844 16.2937C10.694 16.4686 10.543 16.6761 10.44 16.9045C10.337 17.1329 10.284 17.3778 10.284 17.625C10.284 17.8722 10.337 18.1171 10.44 18.3455C10.543 18.5739 10.694 18.7814 10.8844 18.9562L19.0511 26.4562Z" fill="#2566E9"/>
</svg>
