<svg width="31" height="26" viewBox="0 0 31 26" fill="none" xmlns="http://www.w3.org/2000/svg">
<path d="M28.6243 15.5C28.2376 15.5 27.8666 15.6317 27.5932 15.8661C27.3197 16.1005 27.166 16.4185 27.166 16.75V21.75C27.166 22.0815 27.0124 22.3995 26.7389 22.6339C26.4654 22.8683 26.0945 23 25.7077 23H5.29102C4.90424 23 4.53331 22.8683 4.25982 22.6339C3.98633 22.3995 3.83268 22.0815 3.83268 21.75V16.75C3.83268 16.4185 3.67904 16.1005 3.40555 15.8661C3.13206 15.6317 2.76112 15.5 2.37435 15.5C1.98757 15.5 1.61664 15.6317 1.34315 15.8661C1.06966 16.1005 0.916016 16.4185 0.916016 16.75V21.75C0.916016 22.7446 1.37695 23.6984 2.19742 24.4017C3.0179 25.1049 4.13069 25.5 5.29102 25.5H25.7077C26.868 25.5 27.9808 25.1049 28.8013 24.4017C29.6217 23.6984 30.0827 22.7446 30.0827 21.75V16.75C30.0827 16.4185 29.929 16.1005 29.6555 15.8661C29.3821 15.6317 29.0111 15.5 28.6243 15.5ZM14.4639 17.6375C14.6026 17.7513 14.7662 17.8405 14.9452 17.9C15.1197 17.9661 15.3085 18.0003 15.4993 18.0003C15.6902 18.0003 15.879 17.9661 16.0535 17.9C16.2325 17.8405 16.3961 17.7513 16.5348 17.6375L22.3681 12.6375C22.6427 12.4021 22.797 12.0829 22.797 11.75C22.797 11.4171 22.6427 11.0979 22.3681 10.8625C22.0935 10.6271 21.721 10.4949 21.3327 10.4949C20.9443 10.4949 20.5719 10.6271 20.2973 10.8625L16.9577 13.7375V1.75C16.9577 1.41848 16.804 1.10054 16.5305 0.866116C16.2571 0.631696 15.8861 0.5 15.4993 0.5C15.1126 0.5 14.7416 0.631696 14.4682 0.866116C14.1947 1.10054 14.041 1.41848 14.041 1.75V13.7375L10.7014 10.8625C10.5655 10.746 10.404 10.6535 10.2264 10.5904C10.0487 10.5273 9.85831 10.4949 9.66602 10.4949C9.47372 10.4949 9.28331 10.5273 9.10565 10.5904C8.928 10.6535 8.76657 10.746 8.6306 10.8625C8.49463 10.979 8.38677 11.1174 8.31318 11.2697C8.23959 11.422 8.20172 11.5852 8.20172 11.75C8.20172 11.9148 8.23959 12.078 8.31318 12.2303C8.38677 12.3826 8.49463 12.521 8.6306 12.6375L14.4639 17.6375Z" fill="#2566E9"/>
</svg>
