<svg width="15" height="15" viewBox="0 0 15 15" fill="none" xmlns="http://www.w3.org/2000/svg">
<path d="M1.31283 11.7205L1.45449 11.5955C1.8564 11.2374 2.20818 10.8268 2.50033 10.3747C2.8194 9.75074 3.01064 9.06935 3.06283 8.37051L3.06283 6.31217C3.06007 5.21451 3.45824 4.15362 4.18252 3.32883C4.9068 2.50404 5.90735 1.97212 6.99616 1.83301V1.29551C6.99616 1.14798 7.05477 1.0065 7.15908 0.90218C7.2634 0.797863 7.40488 0.739258 7.55241 0.739258C7.69994 0.739258 7.84142 0.797863 7.94574 0.90218C8.05006 1.0065 8.10866 1.14798 8.10866 1.29551V1.84134C9.18772 1.99048 10.1762 2.52561 10.8909 3.34764C11.6057 4.16966 11.9984 5.22286 11.9962 6.31217V8.37051C12.0483 9.06935 12.2396 9.75074 12.5587 10.3747C12.8458 10.8257 13.1919 11.2362 13.5878 11.5955L13.7295 11.7205V12.8955L1.31283 12.8955V11.7205Z" fill="#B1B3B2"/>
<path d="M8.61621 13.333C8.57967 13.5971 8.4488 13.8391 8.24776 14.0142C8.04672 14.1894 7.78909 14.2859 7.52246 14.2859C7.25583 14.2859 6.9982 14.1894 6.79716 14.0142C6.59612 13.8391 6.46525 13.5971 6.42871 13.333H8.61621Z" fill="white"/>
</svg>
