<svg width="30" height="36" viewBox="0 0 30 36" fill="none" xmlns="http://www.w3.org/2000/svg">
<path d="M27.5 28V33H2.5V28H0V33L0.00999987 32.9938C0.00884895 33.3218 0.0723514 33.6469 0.196878 33.9505C0.321405 34.254 0.504516 34.53 0.735751 34.7628C0.966985 34.9955 1.24181 35.1804 1.54453 35.3069C1.84724 35.4334 2.17192 35.499 2.5 35.5H27.5C28.163 35.5 28.7989 35.2366 29.2678 34.7678C29.7366 34.2989 30 33.663 30 33V28H27.5ZM2.5 13L4.26375 14.7562L13.75 5.28125V28H16.25V5.28125L25.7388 14.7562L27.5 13L15 0.5L2.5 13Z" fill="#2566E9"/>
</svg>
